<svg width="40" height="40" xmlns="http://www.w3.org/2000/svg"><g fill="#A26FE3" fill-rule="evenodd"><circle opacity=".1" cx="20" cy="20" r="20"/><path d="M31.433 28.95H8.567a.567.567 0 1 0 0 1.134h22.866a.567.567 0 0 0 0-1.134zM29.955 11.686h-3.982a.567.567 0 0 0-.567.567v3.855h-2.848V9.576a.567.567 0 0 0-.567-.567h-3.982a.567.567 0 0 0-.567.567v10.73h-2.848v-4.82a.567.567 0 0 0-.567-.567h-3.982a.567.567 0 0 0-.567.567V26.34c0 .313.254.567.567.567h19.91a.567.567 0 0 0 .567-.567V12.253a.567.567 0 0 0-.567-.567zM13.46 25.773h-2.848v-9.72h2.848v9.72zm3.982 0h-2.848V21.44h2.848v4.334zm3.982-9.098v9.098h-2.848v-15.63h2.848v6.532zm3.982 9.098h-2.848v-8.53h2.848v8.53zm3.982 0H26.54V12.82h2.848v12.953z" fill-rule="nonzero"/></g></svg>