<svg width="40" height="40" xmlns="http://www.w3.org/2000/svg"><g fill="#8C468B" fill-rule="evenodd"><circle opacity=".1" cx="20" cy="20" r="20"/><path d="M29.41 14.032a2.546 2.546 0 0 0-2.543 2.543c0 .512.152.988.413 1.387l-2.748 2.748c-.4-.261-.876-.413-1.387-.413-.53 0-1.023.163-1.43.441l-2.777-2.776c.261-.4.413-.875.413-1.387a2.546 2.546 0 0 0-2.543-2.543 2.546 2.546 0 0 0-2.543 2.543c0 .512.152.988.413 1.387L11.93 20.71c-.4-.261-.875-.413-1.387-.413A2.546 2.546 0 0 0 8 22.84a2.546 2.546 0 0 0 2.543 2.543 2.546 2.546 0 0 0 2.544-2.543c0-.511-.153-.988-.414-1.387l2.748-2.748a2.528 2.528 0 0 0 2.774 0l2.792 2.792c-.244.39-.385.85-.385 1.343a2.546 2.546 0 0 0 2.543 2.543 2.546 2.546 0 0 0 2.543-2.543c0-.511-.152-.988-.413-1.387l2.748-2.748c.4.261.876.413 1.387.413a2.546 2.546 0 0 0 2.543-2.543 2.546 2.546 0 0 0-2.543-2.543zm-18.867 10.3c-.822 0-1.492-.67-1.492-1.492 0-.823.67-1.492 1.492-1.492.823 0 1.492.67 1.492 1.492 0 .823-.669 1.492-1.492 1.492zm6.265-6.265c-.822 0-1.492-.67-1.492-1.492 0-.823.67-1.492 1.492-1.492.823 0 1.492.67 1.492 1.492 0 .823-.669 1.492-1.492 1.492zm6.337 6.265c-.823 0-1.492-.67-1.492-1.492 0-.823.67-1.492 1.492-1.492.823 0 1.492.67 1.492 1.492 0 .823-.67 1.492-1.492 1.492zm6.265-6.265c-.823 0-1.492-.67-1.492-1.492 0-.823.67-1.492 1.492-1.492.823 0 1.492.67 1.492 1.492 0 .823-.67 1.492-1.492 1.492z" fill-rule="nonzero"/><path d="M16.27 20.49a.526.526 0 0 0-.743 0l-1.07 1.069a.526.526 0 0 0 .744.743l1.07-1.069a.526.526 0 0 0 0-.743zM25.495 17.132a.526.526 0 0 0-.743 0l-1.07 1.069a.526.526 0 0 0 .744.743l1.07-1.069a.526.526 0 0 0 0-.743z" fill-rule="nonzero"/></g></svg>