<svg width="40" height="40" xmlns="http://www.w3.org/2000/svg"><g fill="#5F5FBC" fill-rule="evenodd"><circle opacity=".1" cx="20" cy="20" r="20"/><path d="M31.063 11.018H8.468a.469.469 0 0 0-.469.468v17.309c0 .259.21.469.469.469h22.593c.26 0 .47-.21.47-.47V11.487a.469.469 0 0 0-.47-.468zM13.648 28.326h-4.71V25.8h4.71v2.526zm0-3.464h-4.71v-2.526h4.71v2.526zm0-3.464h-4.71v-2.526h4.71v2.526zm0-3.464h-4.71V15.42h4.71v2.515zm5.649 10.392h-4.711V25.8h4.71v2.526zm0-3.464h-4.711v-2.526h4.71v2.526zm0-3.464h-4.711v-2.526h4.71v2.526zm0-3.464h-4.711V15.42h4.71v2.515zm5.648 10.392h-4.71V25.8h4.71v2.526zm0-3.464h-4.71v-2.526h4.71v2.526zm0-3.464h-4.71v-2.526h4.71v2.526zm0-3.464h-4.71V15.42h4.71v2.515zm5.649 10.392h-4.711V25.8h4.71v2.526zm0-3.464h-4.711v-2.526h4.71v2.526zm0-3.464h-4.711v-2.526h4.71v2.526zm0-3.463h-4.711v-2.516h4.71v2.515zm0-3.464H8.937v-2.516h21.657v2.516z" fill-rule="nonzero"/></g></svg>