<svg width="40" height="40" xmlns="http://www.w3.org/2000/svg"><g fill="none" fill-rule="evenodd"><circle fill="#00E7CE" opacity=".1" cx="20" cy="20" r="20"/><g fill="#0CA897" fill-rule="nonzero"><path d="M28.779 11.258a10.925 10.925 0 0 0-7.776-3.221.478.478 0 0 0-.478.478v10.519c0 .17.091.328.239.414l9.11 5.26a.476.476 0 0 0 .654-.175 10.993 10.993 0 0 0 1.472-5.5c0-2.937-1.144-5.698-3.221-7.775zm1.15 12.377l-8.448-4.877V9.004c5.316.25 9.563 4.653 9.563 10.03 0 1.605-.384 3.186-1.115 4.601z"/><path d="M28.57 25.54a.478.478 0 0 0-.223-.29l-8.872-5.122V9.885a.478.478 0 0 0-.478-.478 10.925 10.925 0 0 0-7.776 3.22A10.925 10.925 0 0 0 8 20.405c0 1.933.509 3.834 1.472 5.499a10.987 10.987 0 0 0 9.525 5.497 10.987 10.987 0 0 0 9.525-5.497c.063-.11.08-.24.048-.363zM8.956 20.404c0-5.377 4.247-9.78 9.563-10.03v9.754l-8.448 4.877a10.045 10.045 0 0 1-1.115-4.601zm10.041 10.04a10.081 10.081 0 0 1-8.448-4.611l8.448-4.877 8.448 4.877a10.081 10.081 0 0 1-8.448 4.612z"/></g></g></svg>