<svg width="40" height="40" xmlns="http://www.w3.org/2000/svg"><g fill="none" fill-rule="evenodd"><circle fill="#00E7DB" opacity=".1" cx="20" cy="20" r="20"/><path d="M31.531 25.75H13.72a.469.469 0 0 0-.469.469v3c0 .259.21.468.469.468h1.453a.469.469 0 1 0 0-.937h-.985v-2.063h6.376v2.063H19.39a.469.469 0 1 0 0 .938h12.14c.26 0 .469-.21.469-.47v-3a.469.469 0 0 0-.469-.468zm-10.031.938h5.11v2.062H21.5v-2.063zm9.563 2.062h-3.516v-2.063h3.515v2.063zM9.969 25.75A1.97 1.97 0 0 0 8 27.719a1.97 1.97 0 0 0 1.969 1.968 1.97 1.97 0 0 0 1.969-1.968 1.97 1.97 0 0 0-1.97-1.969zm0 3a1.032 1.032 0 0 1 0-2.063 1.032 1.032 0 0 1 0 2.063zM13.719 24.438h13.36c.258 0 .468-.21.468-.47v-3a.469.469 0 0 0-.469-.468h-13.36a.469.469 0 0 0-.468.469v3c0 .259.21.468.469.468zm6.265-.938v-2.063h3V23.5h-3zm6.625 0h-2.687v-2.063h2.687V23.5zm-12.422-2.063h4.86V23.5h-4.86v-2.063zM9.969 20.5A1.97 1.97 0 0 0 8 22.469a1.97 1.97 0 0 0 1.969 1.968 1.97 1.97 0 0 0 1.969-1.968 1.97 1.97 0 0 0-1.97-1.969zm0 3a1.032 1.032 0 0 1 0-2.063 1.032 1.032 0 0 1 0 2.063zM13.719 19.188h9.984c.259 0 .469-.21.469-.47v-3a.469.469 0 0 0-.469-.468H13.72a.469.469 0 0 0-.469.469v3c0 .259.21.468.469.468zm4.39-.938v-2.063h2.453v2.063H18.11zm5.125 0H21.5v-2.063h1.734v2.063zm-9.047-2.063h2.985v2.063h-2.985v-2.063zM9.969 15.25A1.97 1.97 0 0 0 8 17.219a1.97 1.97 0 0 0 1.969 1.968 1.97 1.97 0 0 0 1.969-1.968 1.97 1.97 0 0 0-1.97-1.969zm0 3a1.032 1.032 0 0 1 0-2.063 1.032 1.032 0 0 1 0 2.063zM13.719 13.938h6.287c.259 0 .469-.21.469-.47v-3a.469.469 0 0 0-.469-.468h-6.287a.469.469 0 0 0-.469.469v3c0 .259.21.469.469.469zM19.537 13H17.86v-2.063h1.678V13zm-5.35-2.063h2.735V13h-2.735v-2.063zM9.969 10A1.97 1.97 0 0 0 8 11.969a1.97 1.97 0 0 0 1.969 1.969 1.97 1.97 0 0 0 1.969-1.97A1.97 1.97 0 0 0 9.967 10zm0 3a1.032 1.032 0 0 1 0-2.063 1.032 1.032 0 0 1 0 2.063z" fill="#3BBBB4" fill-rule="nonzero"/><path d="M17.281 28.75a.472.472 0 0 0-.468.469.472.472 0 0 0 .468.468.472.472 0 0 0 .469-.468.472.472 0 0 0-.469-.469z" fill="#3BBBB4" fill-rule="nonzero"/></g></svg>