<svg width="24" height="24" xmlns="http://www.w3.org/2000/svg"><g fill="none" fill-rule="evenodd"><path d="M0 0h24v24H0z"/><g fill="#F7F7F9" fill-rule="nonzero"><path d="M12.676 13.208a2.75 2.75 0 0 0-2.193-1.162 2.116 2.116 0 0 1-2.1-1.868c.312-.227.6-.515.855-.86.515-.698.85-1.57.974-2.512a.496.496 0 0 0 .093-.145c.218-.52.328-1.074.328-1.648 0-2.21-1.67-4.007-3.723-4.007-.53 0-1.046.12-1.533.359a2.74 2.74 0 0 0-.531.098c-1.717.495-2.687 2.57-2.163 4.626.053.206.12.41.2.604.021.053.052.1.088.14.197 1.451.884 2.659 1.824 3.342a2.116 2.116 0 0 1-2.1 1.87l-.049.003A2.747 2.747 0 0 0 0 14.79v2.954c0 .276.223.499.499.499h8.816a.499.499 0 0 0 0-.998H.998V14.79c0-.963.783-1.746 1.746-1.746a3.091 3.091 0 0 0 1.072-.21l2.363 3.41a.499.499 0 0 0 .82 0l2.363-3.41a3.092 3.092 0 0 0 1.072.21c.566 0 1.1.276 1.427.74a.498.498 0 1 0 .815-.576zM5.122 2.42c.131-.038.27-.06.412-.067a.499.499 0 0 0 .21-.056c.37-.195.763-.294 1.166-.294 1.472 0 2.675 1.296 2.723 2.908a1.781 1.781 0 0 0-1.078-.361h-2.61a.592.592 0 0 1-.553-.375.584.584 0 0 0-1.11.073 3.43 3.43 0 0 1-.688 1.331c-.26-1.447.393-2.83 1.528-3.159zm-1.17 4.226c.436-.4.789-.884 1.035-1.418.002 0 .003.002.005.003.277.207.607.316.954.316h2.61c.313 0 .584.184.712.449C9.265 7.033 8.97 8 8.435 8.725c-.504.682-1.16 1.058-1.846 1.058-.636 0-1.254-.329-1.742-.925-.474-.578-.787-1.356-.895-2.211zm2.637 8.436l-1.91-2.756a3.115 3.115 0 0 0 1.044-1.68 2.89 2.89 0 0 0 1.732.002A3.116 3.116 0 0 0 8.5 12.327l-1.91 2.756z"/><path d="M21.307 14.822a.508.508 0 0 0-.05-.002c-1.083 0-1.978-.82-2.098-1.872.61-.445 1.114-1.113 1.447-1.924a.499.499 0 0 0 .87.16c.697-.894 1.058-2.057 1.02-3.276-.039-1.196-.46-2.319-1.184-3.161-.743-.863-1.723-1.343-2.761-1.353a3.6 3.6 0 0 0-.214.004 3.738 3.738 0 0 0-1.678-.336c-1.199.038-2.301.635-3.105 1.682-.78 1.017-1.186 2.344-1.141 3.736.007.236.026.453.056.66.081.593.245 1.16.486 1.688a.499.499 0 0 0 .879.053c.04-.066.092-.148.149-.228.222.676.562 1.283.994 1.763.184.204.383.382.593.534a2.116 2.116 0 0 1-2.1 1.87c-.016 0-.033 0-.049.002a2.747 2.747 0 0 0-2.646 2.742v2.954c0 .276.224.5.5.5h12.18a.499.499 0 0 0 .498-.5v-2.954c0-1.48-1.178-2.69-2.646-2.742zm-7.735-5.231a5.269 5.269 0 0 1-.162-1.143c-.037-1.162.295-2.262.936-3.096.618-.805 1.45-1.264 2.345-1.293.03 0 .673-.037 1.33.294a.508.508 0 0 0 .24.052l.273-.013c.75.005 1.467.362 2.021 1.006.577.67.912 1.573.943 2.542a4.344 4.344 0 0 1-.214 1.508c-.047-.126-.1-.25-.157-.371-.482-1.025-1.293-1.82-2.284-2.236a.499.499 0 0 0-.661.287c-.067.18-.147.354-.24.52-.26.467-.787.745-1.373.724a3.94 3.94 0 0 0-1.518.245c-.396.15-1.06.524-1.479.974zm1.228.271c.19-.127.39-.23.601-.31a2.941 2.941 0 0 1 1.133-.182c.964.033 1.835-.44 2.28-1.235l.08-.149c.454.28.843.676 1.136 1.155a.502.502 0 0 0-.006.045c-.077.947-.403 1.816-.92 2.447-.488.596-1.106.924-1.742.924-1.175 0-2.22-1.117-2.562-2.695zm1.698 3.559a2.89 2.89 0 0 0 1.732 0c.2.85.75 1.565 1.489 1.988a2.448 2.448 0 0 1-2.355 1.79 2.448 2.448 0 0 1-2.354-1.79 3.121 3.121 0 0 0 1.488-1.988zm6.457 6.598H11.773v-2.455c0-.963.784-1.746 1.747-1.746l.05-.003a3.11 3.11 0 0 0 .503-.056 3.448 3.448 0 0 0 3.291 2.438 3.449 3.449 0 0 0 3.291-2.438 3.103 3.103 0 0 0 .554.059c.963 0 1.746.783 1.746 1.746v2.455z"/></g></g></svg>