<svg width="23" height="23" xmlns="http://www.w3.org/2000/svg"><g fill="none" fill-rule="evenodd"><path d="M-1 0h24v24H-1z"/><path d="M10 3a1 1 0 0 1 0 2H3a1 1 0 0 0-1 1v14a1 1 0 0 0 1 1h14a1 1 0 0 0 1-1v-7a1 1 0 0 1 2 0v7a3 3 0 0 1-3 3H3a3 3 0 0 1-3-3V6a3 3 0 0 1 3-3h7zm11.207-1.207a3.121 3.121 0 0 1 0 4.414l-9.5 9.5a1 1 0 0 1-.464.263l-4 1a1 1 0 0 1-1.213-1.213l1-4a1 1 0 0 1 .263-.464l9.5-9.5a3.121 3.121 0 0 1 4.414 0zM10.757 14.03l-.268.067-.196.196.464-.263zm9.036-9.237a1.121 1.121 0 0 0-1.586-1.586l-9.304 9.304-.529 2.115 2.115-.529 9.304-9.304z" fill="#3B4060" fill-rule="nonzero"/></g></svg>