<svg width="24" height="24" xmlns="http://www.w3.org/2000/svg"><g fill="none" fill-rule="evenodd"><path d="M0 0h24v24H0z"/><g fill="#F7F7F9" fill-rule="nonzero"><path d="M23.332 4.172H8.57V3.59c0-.856-.696-1.553-1.552-1.553h-2.41c-.856 0-1.552.697-1.552 1.553v.583H.62a.621.621 0 0 0 0 1.243h2.434v.583c0 .856.696 1.553 1.552 1.553h2.41c.856 0 1.552-.697 1.552-1.553v-.583h14.763a.621.621 0 0 0 0-1.243zM7.327 5.998a.31.31 0 0 1-.31.31h-2.41a.31.31 0 0 1-.31-.31v-2.41c0-.17.14-.31.31-.31h2.41c.171 0 .31.14.31.31v2.41zM23.332 11.09H20.9v-.584c0-.856-.697-1.553-1.553-1.553h-2.41c-.856 0-1.552.697-1.552 1.553v.584H.62a.621.621 0 0 0 0 1.242h14.763v.583c0 .856.696 1.553 1.552 1.553h2.41c.856 0 1.552-.697 1.552-1.553v-.583h2.434a.621.621 0 0 0 0-1.242zm-3.676 1.825a.31.31 0 0 1-.31.31h-2.41a.31.31 0 0 1-.31-.31v-2.41c0-.17.14-.31.31-.31h2.41c.171 0 .31.14.31.31v2.41zM23.332 18.515h-10.4v-.583c0-.856-.696-1.553-1.552-1.553H8.97c-.856 0-1.552.697-1.552 1.553v.583H.62a.621.621 0 0 0 0 1.242h6.797v.584c0 .856.696 1.553 1.552 1.553h2.41c.856 0 1.552-.697 1.552-1.553v-.584h10.4a.621.621 0 0 0 0-1.242zM11.69 20.341a.31.31 0 0 1-.31.31H8.97a.31.31 0 0 1-.31-.31v-2.41c0-.17.14-.31.31-.31h2.41c.171 0 .31.14.31.31v2.41z"/></g></g></svg>