<svg width="24" height="24" xmlns="http://www.w3.org/2000/svg"><g fill="none" fill-rule="evenodd"><path d="M0 0h24v24H0z"/><g fill="#F7F7F9" fill-rule="nonzero"><path d="M23.485 9.766h-2.994a.468.468 0 0 0-.468.468v2.362a.468.468 0 0 0 .936 0v-1.894h2.059v12.316h-2.059v-6.913a.468.468 0 0 0-.936 0v6.913h-.935v-9.685a.468.468 0 0 0-.468-.468h-2.994a.468.468 0 0 0-.468.468v9.685h-.936v-6.41a.468.468 0 0 0-.468-.468H10.76a.468.468 0 0 0-.468.468v6.41h-.935v-3.726a.468.468 0 0 0-.468-.467H5.895a.468.468 0 0 0-.468.467v3.726H1.404a.468.468 0 0 1-.468-.468V1.404c0-.258.21-.468.468-.468h12.069v3.088c0 .773.63 1.403 1.403 1.403h3.088v5.754a.468.468 0 0 0 .935 0V4.96a.468.468 0 0 0-.137-.33L14.272.136A.468.468 0 0 0 13.94 0H1.404C.63 0 0 .63 0 1.404V22.55c0 .774.63 1.403 1.404 1.403h22.081c.259 0 .468-.21.468-.468V10.234a.468.468 0 0 0-.468-.468zm-9.077-8.169l2.894 2.894h-2.426a.468.468 0 0 1-.468-.467V1.597zm-5.987 21.42H6.363V19.76H8.42v3.258zm4.866 0h-2.059v-5.941h2.059v5.942zm4.865 0h-2.058v-9.216h2.058v9.217z"/><path d="M20.822 13.933a.47.47 0 0 0-.662 0 .471.471 0 0 0 0 .662.472.472 0 0 0 .662 0 .471.471 0 0 0 0-.662zM6.81 2.56a.468.468 0 0 0-.467.468v.842a4.309 4.309 0 0 0-3.835 4.278A4.308 4.308 0 0 0 6.81 12.45a4.309 4.309 0 0 0 4.277-3.835h.842c.258 0 .468-.21.468-.467A5.593 5.593 0 0 0 6.81 2.56zm0 8.955a3.371 3.371 0 0 1-3.367-3.368 3.373 3.373 0 0 1 2.9-3.334v3.334c0 .259.21.468.468.468h3.334a3.373 3.373 0 0 1-3.334 2.9zm.468-3.835V3.52a4.66 4.66 0 0 1 4.16 4.16h-4.16zM11.93 13.766H2.994a.468.468 0 0 0 0 .936h8.936a.468.468 0 0 0 0-.936zM5.988 16.023H2.994a.468.468 0 0 0 0 .936h2.994a.468.468 0 0 0 0-.936zM8.662 16.16a.471.471 0 0 0-.662 0 .47.47 0 0 0 .331.8.471.471 0 0 0 .468-.469.471.471 0 0 0-.137-.33z"/></g></g></svg>