<svg width="24" height="24" xmlns="http://www.w3.org/2000/svg"><g fill="none" fill-rule="evenodd"><path d="M0 0h24v24H0z"/><g fill="#F7F7F9" fill-rule="nonzero"><path d="M23.387 20.911H.566a.566.566 0 1 0 0 1.132h22.821a.566.566 0 0 0 0-1.132zM21.912 3.68h-3.974a.566.566 0 0 0-.566.567v3.847H14.53V1.575a.566.566 0 0 0-.566-.566H9.989a.566.566 0 0 0-.566.566v10.708H6.581v-4.81a.566.566 0 0 0-.566-.566H2.041a.566.566 0 0 0-.566.566v10.833c0 .313.254.566.566.566H21.912a.566.566 0 0 0 .566-.566V4.246a.566.566 0 0 0-.566-.565zM5.449 17.74H2.607V8.04h2.842v9.701zm3.975 0H6.58v-4.325h2.843v4.325zm3.974-9.08v9.08h-2.843V2.141h2.843v6.52zm3.974 9.08H14.53V9.226h2.842v8.514zm3.974 0h-2.842V4.813h2.842V17.74z"/></g></g></svg>